<svg xmlns="http://www.w3.org/2000/svg" version="1.1" xmlns:xlink="http://www.w3.org/1999/xlink" xmlns:svgjs="http://svgjs.dev/svgjs" width="1500" height="1500" viewBox="0 0 1500 1500"><rect width="1500" height="1500" fill="#e9e2da"></rect><g transform="matrix(0.6666666666666666,0,0,0.6666666666666666,249.39393939393938,435.99032258064517)"><svg viewBox="0 0 396 248" data-background-color="#e9e2da" preserveAspectRatio="xMidYMid meet" height="939" width="1500" xmlns="http://www.w3.org/2000/svg" xmlns:xlink="http://www.w3.org/1999/xlink"><g id="tight-bounds" transform="matrix(1,0,0,1,0.2400000000000091,0.4000000000000057)"><svg viewBox="0 0 395.52 247.2" height="247.2" width="395.52"><g><svg></svg></g><g><svg viewBox="0 0 395.52 247.2" height="247.2" width="395.52"><g transform="matrix(1,0,0,1,135.09049817529495,47.215199999999996)"><svg viewBox="0 0 125.33900364941009 152.7696" height="152.7696" width="125.33900364941009"><g><svg viewBox="0 0 125.33900364941009 152.7696" height="152.7696" width="125.33900364941009"><g><svg viewBox="0 0 172.89471071337238 210.7329325169877" height="152.7696" width="125.33900364941009"><g><svg viewBox="0 0 172.89471071337238 210.7329325169877" height="210.7329325169877" width="172.89471071337238"><g id="textblocktransform"><svg viewBox="0 0 172.89471071337238 210.7329325169877" height="210.7329325169877" width="172.89471071337238" id="textblock"><g><svg viewBox="0 0 172.89471071337238 151.825483872" height="151.825483872" width="172.89471071337238"><g transform="matrix(1,0,0,1,0,0)"><svg width="172.89471071337238" viewBox="3.66 -35.01 39.870000000000005 35.01" height="151.825483872" data-palette-color="#1b2141"><path d="M23.54-14.01L23.73-14.01Q24.07-15.33 24.48-16.61 24.88-17.9 25.46-19.48L25.46-19.48Q25.98-20.9 26.71-22.74 27.44-24.58 28.26-26.49 29.08-28.39 29.86-30.03 30.64-31.67 31.27-32.64L31.27-32.64Q32.06-33.84 32.97-34.42 33.89-35.01 35.67-35.01L35.67-35.01 38.87-35.01Q40.14-35.01 41-34.63 41.87-34.25 42.24-32.84L42.24-32.84Q42.5-31.79 42.75-29.76 42.99-27.73 43.16-24.15 43.33-20.56 43.43-14.93 43.53-9.3 43.53-1.03L43.53-1.03Q43.53-0.59 43.24-0.29 42.94 0 42.53 0L42.53 0 36.96 0Q36.55 0 36.25-0.29 35.96-0.59 35.96-1.05L35.96-1.05Q35.96-7.5 35.96-11.99 35.96-16.48 35.94-19.43 35.91-22.39 35.88-24.13 35.84-25.88 35.77-26.83L35.77-26.83 35.62-26.83Q34.33-23.85 32.86-20.2 31.4-16.55 30-12.68 28.61-8.81 27.51-5.13L27.51-5.13Q27.2-4.03 26.72-3.6 26.25-3.17 24.56-3.17L24.56-3.17 21.75-3.17Q20.31-3.17 19.84-3.54 19.36-3.91 19.02-5.13L19.02-5.13Q18.21-7.91 17.24-11.01 16.26-14.11 15.22-17.1 14.18-20.09 13.22-22.62 12.26-25.15 11.5-26.83L11.5-26.83 11.35-26.83Q11.16-23.95 11.01-19.82 10.86-15.7 10.78-10.86 10.69-6.03 10.67-1L10.67-1Q10.67-0.56 10.38-0.28 10.08 0 9.67 0L9.67 0 4.66 0Q4.25 0 3.96-0.29 3.66-0.59 3.66-1.05L3.66-1.05Q3.69-14.06 4.19-21.83 4.69-29.59 5.27-32.23L5.27-32.23Q5.66-33.96 6.65-34.48 7.64-35.01 8.91-35.01L8.91-35.01 12.87-35.01Q14.21-35.01 14.83-34.53 15.45-34.06 16.36-32.69L16.36-32.69Q16.89-31.88 17.64-30.27 18.38-28.66 19.19-26.7 20-24.73 20.72-22.81 21.44-20.9 21.9-19.48L21.9-19.48Q22.39-18.04 22.8-16.69 23.22-15.33 23.54-14.01L23.54-14.01Z" opacity="1" transform="matrix(1,0,0,1,0,0)" fill="#1b2141" class="wordmark-text-0" data-fill-palette-color="primary" id="text-0"></path></svg></g></svg></g><g transform="matrix(1,0,0,1,0,187.66783680256628)"><svg viewBox="0 0 172.89471071337238 23.06509571442141" height="23.06509571442141" width="172.89471071337238"><g transform="matrix(1,0,0,1,0,0)"><svg width="172.89471071337238" viewBox="1.42 -41.19 406.24 54.2" height="23.06509571442141" data-palette-color="#1b2141"><path d="M25.15-22.46L19.51 0 10.64 0 1.42-35.16 11.3-35.16 17.14-10.21 22.31-35.16 31.2-35.16 36.87-9.57 43.24-35.16 49.22-35.16 38.99 0 30.1 0 25.15-22.46ZM58.2-13.38L58.2-13.38Q59.71-13.04 61.23-12.84 62.74-12.65 64.28-12.65L64.28-12.65Q65.89-12.65 67.27-12.95 68.65-13.26 69.66-13.98 70.68-14.7 71.26-15.89 71.85-17.09 71.85-18.87L71.85-18.87Q71.85-20.31 71.46-21.51 71.07-22.71 70.3-23.56 69.53-24.41 68.41-24.89 67.28-25.37 65.79-25.37L65.79-25.37Q64.4-25.37 63.29-24.85 62.18-24.34 61.34-23.47 60.5-22.61 59.9-21.46 59.3-20.31 58.91-19.07 58.52-17.82 58.35-16.55 58.18-15.28 58.18-14.16L58.18-14.16Q58.18-13.96 58.18-13.77 58.18-13.57 58.2-13.38ZM78.54-18.95L78.54-18.95Q78.54-17.21 77.98-15.86 77.41-14.5 76.45-13.48 75.49-12.45 74.22-11.74 72.95-11.04 71.51-10.58 70.07-10.13 68.54-9.94 67.01-9.74 65.57-9.74L65.57-9.74Q63.74-9.74 61.96-10 60.18-10.25 58.44-10.82L58.44-10.82Q58.71-9.2 59.3-7.75 59.89-6.3 60.86-5.21 61.84-4.13 63.27-3.49 64.69-2.86 66.65-2.86L66.65-2.86Q67.94-2.86 69.11-3.25 70.29-3.64 71.26-4.35 72.24-5.05 72.98-6.03 73.73-7.01 74.19-8.2L74.19-8.2 77.76-6.88Q76.95-4.96 75.55-3.55 74.14-2.15 72.37-1.23 70.6-0.32 68.61 0.12 66.62 0.56 64.67 0.56L64.67 0.56Q61.45 0.56 58.71-0.52 55.98-1.61 54-3.56 52.02-5.52 50.9-8.23 49.78-10.94 49.78-14.16L49.78-14.16Q49.78-17.38 50.9-20.09 52.02-22.8 54-24.76 55.98-26.71 58.71-27.8 61.45-28.88 64.67-28.88L64.67-28.88Q66.23-28.88 67.87-28.66 69.5-28.44 71.04-27.97 72.58-27.49 73.95-26.73 75.31-25.98 76.33-24.87 77.34-23.75 77.94-22.29 78.54-20.83 78.54-18.95ZM113.67-14.06L113.67-14.06Q113.67-10.99 112.74-8.3 111.81-5.62 110.05-3.63 108.3-1.64 105.76-0.49 103.22 0.66 100 0.66L100 0.66Q98.36 0.66 96.88 0.17 95.41-0.32 94.17-1.21 92.94-2.1 92-3.34 91.06-4.59 90.52-6.13L90.52-6.13 86.86 0 83.69 0 83.69-38.57 91.94-38.57 91.94-24.83Q93.4-26.86 95.47-27.81 97.53-28.76 100-28.76L100-28.76Q103.22-28.76 105.76-27.61 108.3-26.46 110.05-24.49 111.81-22.51 112.74-19.82 113.67-17.14 113.67-14.06ZM105.29-14.06L105.29-14.06Q105.29-15.14 105.18-16.35 105.07-17.55 104.8-18.75 104.54-19.95 104.06-21.04 103.58-22.14 102.85-22.99 102.12-23.83 101.09-24.33 100.07-24.83 98.68-24.83L98.68-24.83Q97.41-24.83 96.42-24.3 95.43-23.78 94.68-22.9 93.94-22.02 93.43-20.9 92.91-19.78 92.6-18.58 92.28-17.38 92.13-16.21 91.99-15.04 91.99-14.06L91.99-14.06Q91.99-12.96 92.1-11.74 92.21-10.52 92.48-9.31 92.74-8.11 93.22-7.02 93.7-5.93 94.44-5.09 95.19-4.25 96.22-3.76 97.26-3.27 98.68-3.27L98.68-3.27Q100.04-3.27 101.08-3.77 102.12-4.27 102.85-5.11 103.58-5.96 104.06-7.07 104.54-8.18 104.8-9.38 105.07-10.57 105.18-11.78 105.29-12.99 105.29-14.06ZM167.76-17.63L167.76-17.63Q167.76-15.06 167.08-12.76 166.4-10.45 165.16-8.5 163.93-6.54 162.22-4.97 160.51-3.39 158.45-2.29 156.39-1.2 154.03-0.6 151.67 0 149.18 0L149.18 0 133.68 0 133.68-35.16 149.18-35.16Q151.67-35.16 154.02-34.57 156.36-33.98 158.43-32.9 160.49-31.81 162.21-30.25 163.93-28.69 165.16-26.75 166.4-24.8 167.08-22.5 167.76-20.19 167.76-17.63ZM157.92-17.63L157.92-17.63Q157.92-20.48 157.23-23.06 156.53-25.63 155.07-27.59 153.6-29.54 151.34-30.69 149.09-31.84 145.94-31.84L145.94-31.84 143.37-31.84 143.37-3.42 145.94-3.42Q149.04-3.42 151.3-4.58 153.55-5.74 155.03-7.7 156.51-9.67 157.22-12.23 157.92-14.79 157.92-17.63ZM179.72-13.38L179.72-13.38Q181.24-13.04 182.75-12.84 184.26-12.65 185.8-12.65L185.8-12.65Q187.41-12.65 188.79-12.95 190.17-13.26 191.19-13.98 192.2-14.7 192.79-15.89 193.37-17.09 193.37-18.87L193.37-18.87Q193.37-20.31 192.98-21.51 192.59-22.71 191.82-23.56 191.05-24.41 189.93-24.89 188.81-25.37 187.32-25.37L187.32-25.37Q185.93-25.37 184.81-24.85 183.7-24.34 182.86-23.47 182.02-22.61 181.42-21.46 180.82-20.31 180.43-19.07 180.04-17.82 179.87-16.55 179.7-15.28 179.7-14.16L179.7-14.16Q179.7-13.96 179.7-13.77 179.7-13.57 179.72-13.38ZM200.06-18.95L200.06-18.95Q200.06-17.21 199.5-15.86 198.94-14.5 197.97-13.48 197.01-12.45 195.74-11.74 194.47-11.04 193.03-10.58 191.59-10.13 190.06-9.94 188.54-9.74 187.1-9.74L187.1-9.74Q185.27-9.74 183.48-10 181.7-10.25 179.97-10.82L179.97-10.82Q180.24-9.2 180.82-7.75 181.41-6.3 182.38-5.21 183.36-4.13 184.79-3.49 186.22-2.86 188.17-2.86L188.17-2.86Q189.47-2.86 190.64-3.25 191.81-3.64 192.79-4.35 193.76-5.05 194.51-6.03 195.25-7.01 195.72-8.2L195.72-8.2 199.28-6.88Q198.47-4.96 197.07-3.55 195.67-2.15 193.9-1.23 192.13-0.32 190.14 0.12 188.15 0.56 186.19 0.56L186.19 0.56Q182.97 0.56 180.24-0.52 177.5-1.61 175.52-3.56 173.55-5.52 172.42-8.23 171.3-10.94 171.3-14.16L171.3-14.16Q171.3-17.38 172.42-20.09 173.55-22.8 175.52-24.76 177.5-26.71 180.24-27.8 182.97-28.88 186.19-28.88L186.19-28.88Q187.76-28.88 189.39-28.66 191.03-28.44 192.57-27.97 194.1-27.49 195.47-26.73 196.84-25.98 197.85-24.87 198.86-23.75 199.46-22.29 200.06-20.83 200.06-18.95ZM230.82-28.2L219.71 0 212.29 0 202.04-28.2 210.29-28.2 217.81-5.74 225.11-28.2 230.82-28.2ZM240.53-13.38L240.53-13.38Q242.05-13.04 243.56-12.84 245.08-12.65 246.61-12.65L246.61-12.65Q248.22-12.65 249.6-12.95 250.98-13.26 252-13.98 253.01-14.7 253.6-15.89 254.18-17.09 254.18-18.87L254.18-18.87Q254.18-20.31 253.79-21.51 253.4-22.71 252.63-23.56 251.86-24.41 250.74-24.89 249.62-25.37 248.13-25.37L248.13-25.37Q246.74-25.37 245.62-24.85 244.51-24.34 243.67-23.47 242.83-22.61 242.23-21.46 241.63-20.31 241.24-19.07 240.85-17.82 240.68-16.55 240.51-15.28 240.51-14.16L240.51-14.16Q240.51-13.96 240.51-13.77 240.51-13.57 240.53-13.38ZM260.87-18.95L260.87-18.95Q260.87-17.21 260.31-15.86 259.75-14.5 258.78-13.48 257.82-12.45 256.55-11.74 255.28-11.04 253.84-10.58 252.4-10.13 250.87-9.94 249.35-9.74 247.91-9.74L247.91-9.74Q246.08-9.74 244.29-10 242.51-10.25 240.78-10.82L240.78-10.82Q241.05-9.2 241.63-7.75 242.22-6.3 243.2-5.21 244.17-4.13 245.6-3.49 247.03-2.86 248.98-2.86L248.98-2.86Q250.28-2.86 251.45-3.25 252.62-3.64 253.6-4.35 254.57-5.05 255.32-6.03 256.06-7.01 256.53-8.2L256.53-8.2 260.09-6.88Q259.28-4.96 257.88-3.55 256.48-2.15 254.71-1.23 252.94-0.32 250.95 0.12 248.96 0.56 247 0.56L247 0.56Q243.78 0.56 241.05-0.52 238.31-1.61 236.34-3.56 234.36-5.52 233.23-8.23 232.11-10.94 232.11-14.16L232.11-14.16Q232.11-17.38 233.23-20.09 234.36-22.8 236.34-24.76 238.31-26.71 241.05-27.8 243.78-28.88 247-28.88L247-28.88Q248.57-28.88 250.2-28.66 251.84-28.44 253.38-27.97 254.91-27.49 256.28-26.73 257.65-25.98 258.66-24.87 259.67-23.75 260.27-22.29 260.87-20.83 260.87-18.95ZM274.27-32.62L274.27 0 266.02 0 266.02-41.19 269.19-41.19 274.27-32.62ZM310.94-14.16L310.94-14.16Q310.94-11.96 310.35-10.03 309.77-8.11 308.73-6.47 307.69-4.83 306.23-3.53 304.76-2.22 303.02-1.32 301.27-0.42 299.28 0.07 297.29 0.56 295.19 0.56L295.19 0.56Q293.09 0.56 291.12 0.07 289.14-0.42 287.39-1.32 285.65-2.22 284.18-3.53 282.72-4.83 281.68-6.47 280.64-8.11 280.06-10.05 279.47-11.99 279.47-14.16L279.47-14.16Q279.47-16.33 280.06-18.27 280.64-20.21 281.68-21.85 282.72-23.49 284.18-24.79 285.65-26.1 287.39-27 289.14-27.91 291.12-28.39 293.09-28.88 295.19-28.88L295.19-28.88Q297.29-28.88 299.28-28.39 301.27-27.91 303.02-27 304.76-26.1 306.23-24.79 307.69-23.49 308.73-21.85 309.77-20.21 310.35-18.27 310.94-16.33 310.94-14.16ZM302.54-14.16L302.54-14.16Q302.54-15.33 302.41-16.64 302.27-17.94 301.96-19.2 301.64-20.46 301.09-21.62 300.54-22.78 299.73-23.65 298.93-24.51 297.8-25.04 296.68-25.56 295.19-25.56L295.19-25.56Q293.78-25.56 292.68-25.02 291.58-24.49 290.76-23.6 289.94-22.71 289.39-21.53 288.84-20.36 288.5-19.1 288.16-17.85 288.01-16.56 287.87-15.28 287.87-14.16L287.87-14.16Q287.87-13.04 288.01-11.76 288.16-10.47 288.5-9.2 288.84-7.93 289.39-6.77 289.94-5.62 290.76-4.72 291.58-3.83 292.68-3.3 293.78-2.76 295.19-2.76L295.19-2.76Q296.66-2.76 297.78-3.28 298.9-3.81 299.72-4.69 300.54-5.57 301.08-6.71 301.61-7.86 301.94-9.13 302.27-10.4 302.41-11.69 302.54-12.99 302.54-14.16ZM346.12-14.16L346.12-14.16Q346.12-11.08 345.19-8.4 344.26-5.71 342.5-3.72 340.75-1.73 338.21-0.59 335.67 0.56 332.45 0.56L332.45 0.56Q329.98 0.56 327.92-0.4 325.85-1.37 324.39-3.37L324.39-3.37 324.39 13.01 316.14 13.01 316.14-28.2 319.31-28.2 322.97-22.07Q323.51-23.61 324.45-24.87 325.39-26.12 326.62-27.01 327.86-27.91 329.33-28.39 330.81-28.88 332.45-28.88L332.45-28.88Q335.67-28.88 338.21-27.73 340.75-26.59 342.5-24.6 344.26-22.61 345.19-19.92 346.12-17.24 346.12-14.16ZM337.74-14.16L337.74-14.16Q337.74-15.23 337.63-16.44 337.52-17.65 337.26-18.85 336.99-20.04 336.51-21.14 336.03-22.24 335.3-23.08 334.57-23.93 333.53-24.43 332.49-24.93 331.13-24.93L331.13-24.93Q329.71-24.93 328.67-24.44 327.64-23.95 326.89-23.11 326.15-22.27 325.67-21.18 325.19-20.09 324.93-18.9 324.66-17.7 324.55-16.48 324.44-15.26 324.44-14.16L324.44-14.16Q324.44-13.18 324.58-12 324.73-10.82 325.05-9.62 325.37-8.42 325.88-7.3 326.39-6.18 327.14-5.3 327.88-4.42 328.87-3.89 329.86-3.37 331.13-3.37L331.13-3.37Q332.52-3.37 333.54-3.87 334.57-4.37 335.3-5.21 336.03-6.05 336.51-7.15 336.99-8.25 337.26-9.45 337.52-10.64 337.63-11.87 337.74-13.09 337.74-14.16ZM358.2-13.38L358.2-13.38Q359.71-13.04 361.23-12.84 362.74-12.65 364.28-12.65L364.28-12.65Q365.89-12.65 367.27-12.95 368.65-13.26 369.66-13.98 370.68-14.7 371.26-15.89 371.85-17.09 371.85-18.87L371.85-18.87Q371.85-20.31 371.46-21.51 371.07-22.71 370.3-23.56 369.53-24.41 368.41-24.89 367.28-25.37 365.79-25.37L365.79-25.37Q364.4-25.37 363.29-24.85 362.18-24.34 361.34-23.47 360.49-22.61 359.9-21.46 359.3-20.31 358.91-19.07 358.52-17.82 358.35-16.55 358.18-15.28 358.18-14.16L358.18-14.16Q358.18-13.96 358.18-13.77 358.18-13.57 358.2-13.38ZM378.54-18.95L378.54-18.95Q378.54-17.21 377.98-15.86 377.41-14.5 376.45-13.48 375.49-12.45 374.22-11.74 372.95-11.04 371.51-10.58 370.07-10.13 368.54-9.94 367.01-9.74 365.57-9.74L365.57-9.74Q363.74-9.74 361.96-10 360.18-10.25 358.44-10.82L358.44-10.82Q358.71-9.2 359.3-7.75 359.88-6.3 360.86-5.21 361.84-4.13 363.27-3.49 364.69-2.86 366.65-2.86L366.65-2.86Q367.94-2.86 369.11-3.25 370.29-3.64 371.26-4.35 372.24-5.05 372.98-6.03 373.73-7.01 374.19-8.2L374.19-8.2 377.76-6.88Q376.95-4.96 375.55-3.55 374.14-2.15 372.37-1.23 370.6-0.32 368.61 0.12 366.62 0.56 364.67 0.56L364.67 0.56Q361.45 0.56 358.71-0.52 355.98-1.61 354-3.56 352.02-5.52 350.9-8.23 349.78-10.94 349.78-14.16L349.78-14.16Q349.78-17.38 350.9-20.09 352.02-22.8 354-24.76 355.98-26.71 358.71-27.8 361.45-28.88 364.67-28.88L364.67-28.88Q366.23-28.88 367.87-28.66 369.5-28.44 371.04-27.97 372.58-27.49 373.95-26.73 375.31-25.98 376.33-24.87 377.34-23.75 377.94-22.29 378.54-20.83 378.54-18.95ZM407.66-25.71L407.66-25.71 403.02-18.02Q402.73-18.99 402.26-20.21 401.8-21.44 401.12-22.5 400.43-23.56 399.48-24.28 398.53-25 397.28-25L397.28-25Q396.14-25 395.29-24.41 394.45-23.83 393.87-22.89 393.28-21.95 392.9-20.76 392.52-19.58 392.32-18.37 392.11-17.16 392.04-16.05 391.96-14.94 391.96-14.14L391.96-14.14 391.96 0 383.69 0 383.69-28.2 386.86-28.2 390.2-21.63Q390.89-23.22 391.77-24.55 392.65-25.88 393.79-26.84 394.94-27.81 396.39-28.34 397.85-28.88 399.68-28.88L399.68-28.88Q400.63-28.88 401.8-28.72 402.97-28.56 404.1-28.19 405.22-27.81 406.17-27.2 407.12-26.59 407.66-25.71Z" opacity="1" transform="matrix(1,0,0,1,0,0)" fill="#1b2141" class="slogan-text-1" data-fill-palette-color="secondary" id="text-1"></path></svg></g></svg></g></svg></g></svg></g></svg></g></svg></g></svg></g><g><path d="M0 123.6c0-68.262 55.338-123.6 123.6-123.6 33.113 0 63.185 13.022 85.375 34.223l-7.356 0c-20.857-18.221-48.149-29.26-78.019-29.26-65.521 0-118.637 53.116-118.637 118.637 0 65.521 53.116 118.637 118.637 118.637 29.87 0 57.163-11.039 78.019-29.26l7.356 0c-22.189 21.202-52.261 34.223-85.375 34.223-68.262 0-123.6-55.338-123.6-123.6z" fill="#1b2141" stroke="transparent" data-fill-palette-color="tertiary"></path></g></svg></g><defs></defs></svg><rect width="395.52" height="247.2" fill="none" stroke="none" visibility="hidden"></rect></g></svg></g></svg>