<svg xmlns="http://www.w3.org/2000/svg" version="1.1" xmlns:xlink="http://www.w3.org/1999/xlink" xmlns:svgjs="http://svgjs.dev/svgjs" width="1500" height="1500" viewBox="0 0 1500 1500"><rect width="1500" height="1500" fill="#aaa6c3"></rect><g transform="matrix(0.6666666666666666,0,0,0.6666666666666666,249.39393939393938,435.99032258064517)"><svg viewBox="0 0 396 248" data-background-color="#aaa6c3" preserveAspectRatio="xMidYMid meet" height="939" width="1500" xmlns="http://www.w3.org/2000/svg" xmlns:xlink="http://www.w3.org/1999/xlink"><g id="tight-bounds" transform="matrix(1,0,0,1,0.2400000000000091,0.4000000000000057)"><svg viewBox="0 0 395.52 247.2" height="247.2" width="395.52"><g><svg></svg></g><g><svg viewBox="0 0 395.52 247.2" height="247.2" width="395.52"><g transform="matrix(1,0,0,1,92.60337208591713,47.215199999999996)"><svg viewBox="0 0 210.31325582816572 152.7696" height="152.7696" width="210.31325582816572"><g><svg viewBox="0 0 244.43135999999998 177.55267468811206" height="152.7696" width="210.31325582816572"><g><svg viewBox="0 0 244.43135999999998 177.55267468811206" height="177.55267468811206" width="244.43135999999998"><g id="textblocktransform"><svg viewBox="0 0 244.43135999999998 177.55267468811206" height="177.55267468811206" width="244.43135999999998" id="textblock"><g><svg viewBox="0 0 244.43135999999998 110.3297156979405" height="110.3297156979405" width="244.43135999999998"><g transform="matrix(1,0,0,1,0,0)"><svg width="244.43135999999998" viewBox="2.8 -38.6 87.4 39.45" height="110.3297156979405" data-palette-color="#050816"><path d="M21.35 0.85Q15.25 0.85 11.1-1.6 6.95-4.05 4.88-8.5 2.8-12.95 2.8-18.9L2.8-18.9Q2.8-24.5 4.85-28.95 6.9-33.4 11.08-36 15.25-38.6 21.35-38.6L21.35-38.6Q24-38.6 26.08-38.18 28.15-37.75 30.55-36.75L30.55-36.75 30.55-32.3Q26.3-34.35 21.45-34.35L21.45-34.35Q17.25-34.35 14.15-32.38 11.05-30.4 9.4-26.88 7.75-23.35 7.8-18.9L7.8-18.9Q7.8-14.3 9.4-10.8 11-7.3 14.05-5.35 17.1-3.4 21.35-3.4L21.35-3.4Q24-3.4 26.58-4.15 29.15-4.9 32-6.3L32-6.3 33.55-2.2Q30.65-0.7 27.45 0.08 24.25 0.85 21.35 0.85L21.35 0.85ZM39.8 0L39.8-8.05 45-8.05 45 0 39.8 0ZM84.85-37.9L90.2-37.9 90.2 0 85.35 0 85.35-30.55 73.75-14.4 71.2-14.4 59.7-30.55 59.7 0 54.85 0 54.85-37.9 60.15-37.9 72.5-20.6 84.85-37.9Z" opacity="1" transform="matrix(1,0,0,1,0,0)" fill="#050816" class="wordmark-text-0" data-fill-palette-color="primary" id="text-0"></path></svg></g></svg></g><g transform="matrix(1,0,0,1,0,136.3759136610475)"><svg viewBox="0 0 244.43135999999998 41.17676102706454" height="41.17676102706454" width="244.43135999999998"><g transform="matrix(1,0,0,1,0,0)"><svg width="244.43135999999998" viewBox="0.7 -37.7 288.17 48.550000000000004" height="41.17676102706454" data-palette-color="#050816"><path d="M28.5-34.55L34.4-34.55 29.55 0 21.2 0 17.5-27.8 13.65 0 5.45 0 0.7-34.55 6.85-34.55 10.05-5.1 14.2-34.55 20.95-34.55 25-5.1 28.5-34.55ZM56.8-13.85Q56.8-13.4 56.65-11.3L56.65-11.3 43-11.3Q43.2-7.2 44.42-5.58 45.65-3.95 47.9-3.95L47.9-3.95Q49.45-3.95 50.7-4.48 51.95-5 53.4-6.15L53.4-6.15 55.95-2.65Q52.45 0.75 47.55 0.75L47.55 0.75Q42.35 0.75 39.57-2.85 36.8-6.45 36.8-13L36.8-13Q36.8-19.55 39.45-23.35 42.1-27.15 46.95-27.15L46.95-27.15Q51.6-27.15 54.2-23.78 56.8-20.4 56.8-13.85L56.8-13.85ZM50.8-15.3L50.8-15.65Q50.8-19.4 49.9-21.13 49-22.85 47-22.85L47-22.85Q45.15-22.85 44.17-21.18 43.2-19.5 43-15.3L43-15.3 50.8-15.3ZM73.25-27.15Q77.09-27.15 79.15-23.65 81.2-20.15 81.2-13.25L81.2-13.25Q81.2-6.75 78.9-3 76.59 0.75 72.59 0.75L72.59 0.75Q70.84 0.75 69.4-0.13 67.95-1 66.9-2.55L66.9-2.55 66.55 0 61.1 0 61.1-37 67.25-37.65 67.25-23.6Q68.3-25.3 69.82-26.23 71.34-27.15 73.25-27.15L73.25-27.15ZM70.95-3.9Q72.8-3.9 73.82-6 74.84-8.1 74.84-13.25L74.84-13.25Q74.84-18.6 73.92-20.58 73-22.55 71.3-22.55L71.3-22.55Q70.15-22.55 69.09-21.6 68.05-20.65 67.25-19.1L67.25-19.1 67.25-6.7Q67.9-5.45 68.87-4.67 69.84-3.9 70.95-3.9L70.95-3.9ZM103.49-34.55Q107.84-34.55 111.02-33.23 114.19-31.9 116.17-28.13 118.14-24.35 118.14-17.45L118.14-17.45Q118.14-7.7 114.27-3.85 110.39 0 104.14 0L104.14 0 95.79 0 95.79-34.55 103.49-34.55ZM104.44-29.8L102.14-29.8 102.14-4.75 104.49-4.75Q106.74-4.75 108.27-5.8 109.79-6.85 110.67-9.65 111.54-12.45 111.54-17.45L111.54-17.45Q111.54-22.55 110.62-25.25 109.69-27.95 108.17-28.88 106.64-29.8 104.44-29.8L104.44-29.8ZM141.59-13.85Q141.59-13.4 141.44-11.3L141.44-11.3 127.79-11.3Q127.99-7.2 129.21-5.58 130.44-3.95 132.69-3.95L132.69-3.95Q134.24-3.95 135.49-4.48 136.74-5 138.19-6.15L138.19-6.15 140.74-2.65Q137.24 0.75 132.34 0.75L132.34 0.75Q127.14 0.75 124.36-2.85 121.59-6.45 121.59-13L121.59-13Q121.59-19.55 124.24-23.35 126.89-27.15 131.74-27.15L131.74-27.15Q136.39-27.15 138.99-23.78 141.59-20.4 141.59-13.85L141.59-13.85ZM135.59-15.3L135.59-15.65Q135.59-19.4 134.69-21.13 133.79-22.85 131.79-22.85L131.79-22.85Q129.94-22.85 128.96-21.18 127.99-19.5 127.79-15.3L127.79-15.3 135.59-15.3ZM158.29-26.45L164.34-26.45 157.44 0 150.19 0 143.09-26.45 149.44-26.45 153.79-4.95 158.29-26.45ZM186.08-13.85Q186.08-13.4 185.93-11.3L185.93-11.3 172.28-11.3Q172.48-7.2 173.71-5.58 174.93-3.95 177.18-3.95L177.18-3.95Q178.73-3.95 179.98-4.48 181.23-5 182.68-6.15L182.68-6.15 185.23-2.65Q181.73 0.75 176.83 0.75L176.83 0.75Q171.63 0.75 168.86-2.85 166.08-6.45 166.08-13L166.08-13Q166.08-19.55 168.73-23.35 171.38-27.15 176.23-27.15L176.23-27.15Q180.88-27.15 183.48-23.78 186.08-20.4 186.08-13.85L186.08-13.85ZM180.08-15.3L180.08-15.65Q180.08-19.4 179.18-21.13 178.28-22.85 176.28-22.85L176.28-22.85Q174.43-22.85 173.46-21.18 172.48-19.5 172.28-15.3L172.28-15.3 180.08-15.3ZM195.98 0.75Q193.28 0.75 191.71-0.93 190.13-2.6 190.13-5.4L190.13-5.4 190.13-37.05 196.28-37.7 196.28-5.65Q196.28-5 196.58-4.6 196.88-4.2 197.48-4.2L197.48-4.2Q197.83-4.2 198.16-4.3 198.48-4.4 198.58-4.4L198.58-4.4 199.78-0.2Q198.08 0.75 195.98 0.75L195.98 0.75ZM212.23-27.15Q217.23-27.15 220-23.65 222.78-20.15 222.78-13.25L222.78-13.25Q222.78-6.65 219.98-2.95 217.18 0.75 212.23 0.75L212.23 0.75Q207.28 0.75 204.48-2.88 201.68-6.5 201.68-13.25L201.68-13.25Q201.68-19.95 204.48-23.55 207.28-27.15 212.23-27.15L212.23-27.15ZM212.23-22.5Q210.08-22.5 209.08-20.38 208.08-18.25 208.08-13.25L208.08-13.25Q208.08-8.2 209.08-6.08 210.08-3.95 212.23-3.95L212.23-3.95Q214.38-3.95 215.38-6.08 216.38-8.2 216.38-13.25L216.38-13.25Q216.38-18.3 215.38-20.4 214.38-22.5 212.23-22.5L212.23-22.5ZM239.53-27.15Q243.43-27.15 245.43-23.58 247.43-20 247.43-13.3L247.43-13.3Q247.43-6.8 245.15-3.03 242.88 0.75 238.83 0.75L238.83 0.75Q235.63 0.75 233.48-2.1L233.48-2.1 233.48 10.15 227.33 10.85 227.33-26.45 232.78-26.45 233.03-23.25Q234.33-25.25 235.93-26.2 237.53-27.15 239.53-27.15L239.53-27.15ZM237.18-3.95Q239.08-3.95 240.08-6.13 241.08-8.3 241.08-13.25L241.08-13.25Q241.08-18.45 240.23-20.5 239.38-22.55 237.58-22.55L237.58-22.55Q235.28-22.55 233.48-19.25L233.48-19.25 233.48-6.45Q235.08-3.95 237.18-3.95L237.18-3.95ZM270.87-13.85Q270.87-13.4 270.72-11.3L270.72-11.3 257.07-11.3Q257.27-7.2 258.5-5.58 259.72-3.95 261.97-3.95L261.97-3.95Q263.52-3.95 264.77-4.48 266.02-5 267.47-6.15L267.47-6.15 270.02-2.65Q266.52 0.75 261.62 0.75L261.62 0.75Q256.42 0.75 253.65-2.85 250.87-6.45 250.87-13L250.87-13Q250.87-19.55 253.52-23.35 256.17-27.15 261.02-27.15L261.02-27.15Q265.67-27.15 268.27-23.78 270.87-20.4 270.87-13.85L270.87-13.85ZM264.87-15.3L264.87-15.65Q264.87-19.4 263.97-21.13 263.07-22.85 261.07-22.85L261.07-22.85Q259.22-22.85 258.25-21.18 257.27-19.5 257.07-15.3L257.07-15.3 264.87-15.3ZM286.82-27.1Q287.97-27.1 288.87-26.75L288.87-26.75 287.87-20.85Q286.87-21.1 286.02-21.1L286.02-21.1Q284.12-21.1 283.02-19.45 281.92-17.8 281.32-14.55L281.32-14.55 281.32 0 275.17 0 275.17-26.45 280.52-26.45 280.97-21.85Q282.82-27.1 286.82-27.1L286.82-27.1Z" opacity="1" transform="matrix(1,0,0,1,0,0)" fill="#050816" class="slogan-text-1" data-fill-palette-color="secondary" id="text-1"></path></svg></g></svg></g></svg></g></svg></g></svg></g></svg></g><g><path d="M228.757 0c68.262 0 123.6 55.338 123.6 123.6 0 68.262-55.338 123.6-123.6 123.6-34.034 0-64.854-13.755-87.207-36.01h6.18c21.278 19.693 49.747 31.729 81.027 31.73 65.898 0 119.32-53.421 119.319-119.32 0-65.898-53.421-119.32-119.319-119.32-31.28 0-59.748 12.036-81.027 31.73l-6.18 0c22.352-22.255 53.173-36.01 87.207-36.01z" fill="#050816" stroke="transparent" data-fill-palette-color="tertiary"></path></g></svg></g><defs></defs></svg><rect width="395.52" height="247.2" fill="none" stroke="none" visibility="hidden"></rect></g></svg></g></svg>